<?xml version="1.0" encoding="utf-8"?>
<!-- Generator: Adobe Illustrator 21.0.2, SVG Export Plug-In . SVG Version: 6.00 Build 0)  -->
<svg version="1.1" xmlns="http://www.w3.org/2000/svg" xmlns:xlink="http://www.w3.org/1999/xlink" x="0px" y="0px"
	 viewBox="0 0 800 600" style="enable-background:new 0 0 800 600;" xml:space="preserve">
<g id="Layer_1">
	<g>
		<path d="M544.8,385.7c-6.3,0-12-3.6-14.7-9.3L489.2,291c0,0,38.6-19.6,38.6-68c0-57.4-40.2-70-70.4-70
			c-57.8,0-88.6,38.2-88.6,38.2v-36.7h-13.9C320.2,210,250.7,208,250.7,208v16.4c11.7,0,22.3,6.7,22.3,17.9c0,11.2,0,99.2,0,122.6
			c0,23.3-22.3,22.3-22.3,22.3v13.4h118.1V290.9c13,5.5,23,7.8,23,7.8l29.6,101.8h129v-14.9H544.8z M399.3,269.4
			c-16.4,0-29.4-7.8-29.4-7.8v-39.8c0,0,8.6-11.9,25.3-13.8c15.6-1.7,31.6,3.7,31.6,26.8C426.9,256.4,415.7,269.4,399.3,269.4z"/>
		<rect x="250.7" y="425.7" width="299.7" height="21.5"/>
	</g>
</g>
<g id="Layer_2">
</g>
</svg>
