<svg
                            version="1.0"
                            xmlns="http://www.w3.org/2000/svg"
                            width="700.000000pt"
                            height="700.000000pt"
                            viewBox="0 0 700.000000 700.000000"
                            preserveAspectRatio="xMidYMid meet"
                            className="h-8 w-8 min-w-sm text-gray-900 dark:text-gray-100"
                        >
                            <g
                                transform="translate(0.000000,700.000000) scale(0.100000,-0.100000)"
                                fill="currentColor"
                                stroke="none"
                            >
                                <path
                                    d="M1299 5635 c-1 0 -3 -1020 -4 -2267 l-1 -2268 898 0 898 0 0 2268 0
2268 -895 0 c-492 0 -896 0 -896 -1z"
                                />
                                <path
                                    d="M4997 5623 c-2 -1 -43 -4 -92 -8 -86 -6 -127 -10 -205 -20 -19 -3
-55 -7 -80 -10 -92 -12 -248 -47 -345 -76 -281 -87 -440 -233 -538 -494 -30
-81 -57 -182 -63 -240 -3 -22 -7 -45 -9 -52 -13 -38 -19 -240 -20 -653 l0
-465 245 1 c233 0 484 10 512 18 7 3 42 7 78 11 66 6 240 34 250 40 3 2 21 6
40 9 60 9 252 76 330 115 345 170 521 463 576 956 4 33 7 244 9 468 l2 409
-344 -4 c-190 -1 -345 -4 -346 -5z"
                                />
                                <path
                                    d="M3645 2746 c1 -281 5 -538 9 -571 62 -534 258 -812 671 -950 44 -15
86 -28 95 -30 8 -2 35 -8 60 -15 53 -14 73 -19 120 -26 19 -3 41 -7 48 -9 25
-9 260 -35 377 -42 66 -4 242 -7 390 -7 l270 -1 0 400 c-1 220 -4 436 -8 480
-56 634 -315 994 -835 1164 -99 33 -294 76 -382 86 -30 3 -71 8 -90 10 -102
14 -170 17 -436 20 l-291 3 2 -512z"
                                />
                            </g>
                        </svg>